<svg xmlns="http://www.w3.org/2000/svg" viewBox="0 0 32 32">
  <rect width="32" height="32" rx="6" fill="#0B2545"/>
  <g transform="translate(16,16)">
    <circle r="13" fill="#1C3A6B"/>
    <circle r="11" fill="white"/>
    <polygon points="0,-10 2,-3 0,-1 -2,-3" fill="#C9A14A"/>
    <polygon points="0,10 2,3 0,1 -2,3" fill="#C9A14A"/>
    <polygon points="-10,0 -3,2 -1,0 -3,-2" fill="#C9A14A"/>
    <polygon points="10,0 3,2 1,0 3,-2" fill="#C9A14A"/>
    <polygon points="7,-7 2,-1 1,-1 1,-2" fill="#D4A832"/>
    <polygon points="-7,-7 -1,-2 -1,-1 -2,-1" fill="#D4A832"/>
    <polygon points="7,7 1,2 1,1 2,1" fill="#D4A832"/>
    <polygon points="-7,7 -2,1 -1,1 -1,2" fill="#D4A832"/>
    <circle r="2" fill="#C9A14A"/>
  </g>
</svg>